<mxfile host="Electron" modified="2023-12-30T14:20:56.932Z" agent="Mozilla/5.0 (Windows NT 10.0; Win64; x64) AppleWebKit/537.36 (KHTML, like Gecko) draw.io/22.1.16 Chrome/120.0.6099.109 Electron/28.1.0 Safari/537.36" etag="5nadA5IlIQSyW3QcLoDH" version="22.1.16" type="device">
  <diagram id="C5RBs43oDa-KdzZeNtuy" name="Page-1">
    <mxGraphModel dx="1292" dy="1398" grid="1" gridSize="10" guides="1" tooltips="1" connect="1" arrows="1" fold="1" page="1" pageScale="1" pageWidth="827" pageHeight="1169" math="0" shadow="0">
      <root>
        <mxCell id="WIyWlLk6GJQsqaUBKTNV-0" />
        <mxCell id="WIyWlLk6GJQsqaUBKTNV-1" parent="WIyWlLk6GJQsqaUBKTNV-0" />
        <mxCell id="E8BxfSAv8RuTMesUM-kW-18" value="" style="edgeStyle=orthogonalEdgeStyle;rounded=0;orthogonalLoop=1;jettySize=auto;html=1;fillColor=#a20025;strokeColor=#6F0000;" parent="WIyWlLk6GJQsqaUBKTNV-1" target="E8BxfSAv8RuTMesUM-kW-17" edge="1">
          <mxGeometry relative="1" as="geometry">
            <mxPoint x="450" y="80" as="sourcePoint" />
            <Array as="points">
              <mxPoint x="414" y="80" />
              <mxPoint x="370" y="80" />
            </Array>
          </mxGeometry>
        </mxCell>
        <mxCell id="E8BxfSAv8RuTMesUM-kW-51" style="edgeStyle=orthogonalEdgeStyle;rounded=0;orthogonalLoop=1;jettySize=auto;html=1;fillColor=#008a00;strokeColor=#005700;entryX=0.342;entryY=-0.022;entryDx=0;entryDy=0;entryPerimeter=0;" parent="WIyWlLk6GJQsqaUBKTNV-1" target="E8BxfSAv8RuTMesUM-kW-62" edge="1">
          <mxGeometry relative="1" as="geometry">
            <mxPoint x="600" y="250" as="targetPoint" />
            <mxPoint x="330.0344827586207" y="140" as="sourcePoint" />
            <Array as="points">
              <mxPoint x="330" y="210" />
              <mxPoint x="571" y="210" />
            </Array>
          </mxGeometry>
        </mxCell>
        <mxCell id="E8BxfSAv8RuTMesUM-kW-64" style="edgeStyle=orthogonalEdgeStyle;rounded=0;orthogonalLoop=1;jettySize=auto;html=1;fillColor=#008a00;strokeColor=#005700;entryX=0.264;entryY=-0.033;entryDx=0;entryDy=0;entryPerimeter=0;" parent="WIyWlLk6GJQsqaUBKTNV-1" source="E8BxfSAv8RuTMesUM-kW-17" target="E8BxfSAv8RuTMesUM-kW-68" edge="1">
          <mxGeometry relative="1" as="geometry">
            <mxPoint x="870" y="260" as="targetPoint" />
            <Array as="points">
              <mxPoint x="330" y="210" />
              <mxPoint x="757" y="210" />
            </Array>
          </mxGeometry>
        </mxCell>
        <mxCell id="E8BxfSAv8RuTMesUM-kW-86" style="edgeStyle=orthogonalEdgeStyle;rounded=0;orthogonalLoop=1;jettySize=auto;html=1;entryX=0.25;entryY=0;entryDx=0;entryDy=0;fillColor=#008a00;strokeColor=#005700;" parent="WIyWlLk6GJQsqaUBKTNV-1" source="E8BxfSAv8RuTMesUM-kW-17" target="E8BxfSAv8RuTMesUM-kW-74" edge="1">
          <mxGeometry relative="1" as="geometry">
            <Array as="points">
              <mxPoint x="330" y="210" />
              <mxPoint x="990" y="210" />
            </Array>
          </mxGeometry>
        </mxCell>
        <mxCell id="E8BxfSAv8RuTMesUM-kW-17" value="Space LYnk&lt;br&gt;192.168.0.100" style="rounded=1;whiteSpace=wrap;html=1;" parent="WIyWlLk6GJQsqaUBKTNV-1" vertex="1">
          <mxGeometry x="270" y="120" width="120" height="50" as="geometry" />
        </mxCell>
        <mxCell id="E8BxfSAv8RuTMesUM-kW-19" value="" style="endArrow=classic;html=1;rounded=0;fillColor=#a20025;strokeColor=#6F0000;" parent="WIyWlLk6GJQsqaUBKTNV-1" edge="1">
          <mxGeometry width="50" height="50" relative="1" as="geometry">
            <mxPoint x="370" y="80" as="sourcePoint" />
            <mxPoint x="490" y="110" as="targetPoint" />
            <Array as="points">
              <mxPoint x="414" y="80" />
              <mxPoint x="490" y="80" />
            </Array>
          </mxGeometry>
        </mxCell>
        <mxCell id="E8BxfSAv8RuTMesUM-kW-20" value="Vizualizace&lt;br&gt;5.0.65" style="rounded=1;whiteSpace=wrap;html=1;" parent="WIyWlLk6GJQsqaUBKTNV-1" vertex="1">
          <mxGeometry x="430" y="110" width="120" height="40" as="geometry" />
        </mxCell>
        <mxCell id="E8BxfSAv8RuTMesUM-kW-97" style="edgeStyle=orthogonalEdgeStyle;rounded=0;orthogonalLoop=1;jettySize=auto;html=1;entryX=1;entryY=0.5;entryDx=0;entryDy=0;exitX=0.75;exitY=1;exitDx=0;exitDy=0;fillColor=#008a00;strokeColor=#005700;" parent="WIyWlLk6GJQsqaUBKTNV-1" source="E8BxfSAv8RuTMesUM-kW-31" target="E8BxfSAv8RuTMesUM-kW-77" edge="1">
          <mxGeometry relative="1" as="geometry">
            <mxPoint x="360" y="320" as="sourcePoint" />
            <Array as="points">
              <mxPoint x="360" y="390" />
            </Array>
          </mxGeometry>
        </mxCell>
        <mxCell id="E8BxfSAv8RuTMesUM-kW-98" style="edgeStyle=orthogonalEdgeStyle;rounded=0;orthogonalLoop=1;jettySize=auto;html=1;exitX=0.75;exitY=1;exitDx=0;exitDy=0;entryX=0;entryY=0.5;entryDx=0;entryDy=0;fillColor=#008a00;strokeColor=#005700;" parent="WIyWlLk6GJQsqaUBKTNV-1" source="E8BxfSAv8RuTMesUM-kW-31" target="E8BxfSAv8RuTMesUM-kW-94" edge="1">
          <mxGeometry relative="1" as="geometry" />
        </mxCell>
        <mxCell id="E8BxfSAv8RuTMesUM-kW-99" style="edgeStyle=orthogonalEdgeStyle;rounded=0;orthogonalLoop=1;jettySize=auto;html=1;exitX=0.75;exitY=1;exitDx=0;exitDy=0;entryX=1;entryY=0.5;entryDx=0;entryDy=0;fillColor=#008a00;strokeColor=#005700;" parent="WIyWlLk6GJQsqaUBKTNV-1" source="E8BxfSAv8RuTMesUM-kW-31" target="E8BxfSAv8RuTMesUM-kW-96" edge="1">
          <mxGeometry relative="1" as="geometry" />
        </mxCell>
        <mxCell id="E8BxfSAv8RuTMesUM-kW-100" style="edgeStyle=orthogonalEdgeStyle;rounded=0;orthogonalLoop=1;jettySize=auto;html=1;exitX=0.75;exitY=1;exitDx=0;exitDy=0;entryX=0;entryY=0.5;entryDx=0;entryDy=0;fillColor=#008a00;strokeColor=#005700;" parent="WIyWlLk6GJQsqaUBKTNV-1" source="E8BxfSAv8RuTMesUM-kW-31" target="E8BxfSAv8RuTMesUM-kW-95" edge="1">
          <mxGeometry relative="1" as="geometry" />
        </mxCell>
        <mxCell id="E8BxfSAv8RuTMesUM-kW-104" style="edgeStyle=orthogonalEdgeStyle;rounded=0;orthogonalLoop=1;jettySize=auto;html=1;exitX=0.75;exitY=1;exitDx=0;exitDy=0;entryX=0;entryY=0.5;entryDx=0;entryDy=0;fillColor=#008a00;strokeColor=#005700;" parent="WIyWlLk6GJQsqaUBKTNV-1" source="E8BxfSAv8RuTMesUM-kW-31" target="E8BxfSAv8RuTMesUM-kW-103" edge="1">
          <mxGeometry relative="1" as="geometry" />
        </mxCell>
        <mxCell id="E8BxfSAv8RuTMesUM-kW-105" style="edgeStyle=orthogonalEdgeStyle;rounded=0;orthogonalLoop=1;jettySize=auto;html=1;exitX=0.75;exitY=1;exitDx=0;exitDy=0;fillColor=#008a00;strokeColor=#005700;" parent="WIyWlLk6GJQsqaUBKTNV-1" source="E8BxfSAv8RuTMesUM-kW-31" edge="1">
          <mxGeometry relative="1" as="geometry">
            <mxPoint x="360" y="660" as="targetPoint" />
          </mxGeometry>
        </mxCell>
        <mxCell id="E8BxfSAv8RuTMesUM-kW-31" value="Liniová spojka&lt;br&gt;5.1.0" style="rounded=1;whiteSpace=wrap;html=1;" parent="WIyWlLk6GJQsqaUBKTNV-1" vertex="1">
          <mxGeometry x="270" y="260" width="120" height="50" as="geometry" />
        </mxCell>
        <mxCell id="E8BxfSAv8RuTMesUM-kW-52" style="edgeStyle=orthogonalEdgeStyle;rounded=0;orthogonalLoop=1;jettySize=auto;html=1;fillColor=#008a00;strokeColor=#005700;" parent="WIyWlLk6GJQsqaUBKTNV-1" edge="1">
          <mxGeometry relative="1" as="geometry">
            <mxPoint x="1110" y="210" as="targetPoint" />
            <mxPoint x="142.0344827586207" y="130" as="sourcePoint" />
            <Array as="points">
              <mxPoint x="142" y="210" />
              <mxPoint x="810" y="210" />
            </Array>
          </mxGeometry>
        </mxCell>
        <mxCell id="E8BxfSAv8RuTMesUM-kW-87" style="edgeStyle=orthogonalEdgeStyle;rounded=0;orthogonalLoop=1;jettySize=auto;html=1;exitX=0.5;exitY=1;exitDx=0;exitDy=0;entryX=0.5;entryY=0;entryDx=0;entryDy=0;fillColor=#fa6800;strokeColor=#C73500;" parent="WIyWlLk6GJQsqaUBKTNV-1" source="E8BxfSAv8RuTMesUM-kW-36" target="E8BxfSAv8RuTMesUM-kW-68" edge="1">
          <mxGeometry relative="1" as="geometry">
            <Array as="points">
              <mxPoint x="132" y="220" />
              <mxPoint x="790" y="220" />
            </Array>
          </mxGeometry>
        </mxCell>
        <mxCell id="E8BxfSAv8RuTMesUM-kW-88" style="edgeStyle=orthogonalEdgeStyle;rounded=0;orthogonalLoop=1;jettySize=auto;html=1;exitX=0.5;exitY=1;exitDx=0;exitDy=0;entryX=0.5;entryY=0;entryDx=0;entryDy=0;fillColor=#fa6800;strokeColor=#C73500;" parent="WIyWlLk6GJQsqaUBKTNV-1" source="E8BxfSAv8RuTMesUM-kW-36" target="E8BxfSAv8RuTMesUM-kW-73" edge="1">
          <mxGeometry relative="1" as="geometry">
            <Array as="points">
              <mxPoint x="132" y="220" />
              <mxPoint x="897" y="220" />
            </Array>
          </mxGeometry>
        </mxCell>
        <mxCell id="E8BxfSAv8RuTMesUM-kW-89" style="edgeStyle=orthogonalEdgeStyle;rounded=0;orthogonalLoop=1;jettySize=auto;html=1;exitX=0.5;exitY=1;exitDx=0;exitDy=0;entryX=0.5;entryY=0;entryDx=0;entryDy=0;fillColor=#fa6800;strokeColor=#C73500;" parent="WIyWlLk6GJQsqaUBKTNV-1" source="E8BxfSAv8RuTMesUM-kW-36" target="E8BxfSAv8RuTMesUM-kW-74" edge="1">
          <mxGeometry relative="1" as="geometry">
            <Array as="points">
              <mxPoint x="132" y="220" />
              <mxPoint x="1020" y="220" />
            </Array>
          </mxGeometry>
        </mxCell>
        <mxCell id="E8BxfSAv8RuTMesUM-kW-36" value="KNX zdroj napájení" style="rounded=1;whiteSpace=wrap;html=1;" parent="WIyWlLk6GJQsqaUBKTNV-1" vertex="1">
          <mxGeometry x="72" y="110" width="120" height="40" as="geometry" />
        </mxCell>
        <mxCell id="E8BxfSAv8RuTMesUM-kW-78" style="edgeStyle=orthogonalEdgeStyle;rounded=0;orthogonalLoop=1;jettySize=auto;html=1;fillColor=#fa6800;strokeColor=#C73500;exitX=0.5;exitY=1;exitDx=0;exitDy=0;" parent="WIyWlLk6GJQsqaUBKTNV-1" source="E8BxfSAv8RuTMesUM-kW-36" edge="1">
          <mxGeometry relative="1" as="geometry">
            <mxPoint x="1120" y="220" as="targetPoint" />
            <mxPoint x="40" y="160" as="sourcePoint" />
            <Array as="points">
              <mxPoint x="132" y="220" />
            </Array>
          </mxGeometry>
        </mxCell>
        <mxCell id="E8BxfSAv8RuTMesUM-kW-80" style="edgeStyle=orthogonalEdgeStyle;rounded=0;orthogonalLoop=1;jettySize=auto;html=1;entryX=0.582;entryY=0.031;entryDx=0;entryDy=0;entryPerimeter=0;fillColor=#fa6800;strokeColor=#C73500;exitX=0.5;exitY=1;exitDx=0;exitDy=0;" parent="WIyWlLk6GJQsqaUBKTNV-1" source="E8BxfSAv8RuTMesUM-kW-36" target="E8BxfSAv8RuTMesUM-kW-60" edge="1">
          <mxGeometry relative="1" as="geometry">
            <mxPoint x="80" y="170" as="sourcePoint" />
            <Array as="points">
              <mxPoint x="132" y="220" />
              <mxPoint x="500" y="220" />
            </Array>
          </mxGeometry>
        </mxCell>
        <mxCell id="E8BxfSAv8RuTMesUM-kW-81" style="edgeStyle=orthogonalEdgeStyle;rounded=0;orthogonalLoop=1;jettySize=auto;html=1;entryX=0.5;entryY=0;entryDx=0;entryDy=0;fillColor=#fa6800;strokeColor=#C73500;exitX=0.5;exitY=1;exitDx=0;exitDy=0;" parent="WIyWlLk6GJQsqaUBKTNV-1" source="E8BxfSAv8RuTMesUM-kW-36" target="E8BxfSAv8RuTMesUM-kW-62" edge="1">
          <mxGeometry relative="1" as="geometry">
            <mxPoint x="90" y="190" as="sourcePoint" />
            <Array as="points">
              <mxPoint x="132" y="220" />
              <mxPoint x="590" y="220" />
            </Array>
          </mxGeometry>
        </mxCell>
        <mxCell id="E8BxfSAv8RuTMesUM-kW-82" style="edgeStyle=orthogonalEdgeStyle;rounded=0;orthogonalLoop=1;jettySize=auto;html=1;fillColor=#fa6800;strokeColor=#C73500;entryX=0.5;entryY=0;entryDx=0;entryDy=0;" parent="WIyWlLk6GJQsqaUBKTNV-1" target="E8BxfSAv8RuTMesUM-kW-63" edge="1">
          <mxGeometry relative="1" as="geometry">
            <mxPoint x="132" y="150" as="sourcePoint" />
            <Array as="points">
              <mxPoint x="132" y="220" />
              <mxPoint x="680" y="220" />
            </Array>
          </mxGeometry>
        </mxCell>
        <mxCell id="E8BxfSAv8RuTMesUM-kW-42" value="KNX zdroj napájení" style="rounded=1;whiteSpace=wrap;html=1;" parent="WIyWlLk6GJQsqaUBKTNV-1" vertex="1">
          <mxGeometry x="132" y="260" width="120" height="40" as="geometry" />
        </mxCell>
        <mxCell id="E8BxfSAv8RuTMesUM-kW-46" value="" style="endArrow=classic;html=1;rounded=0;fillColor=#008a00;strokeColor=#005700;entryX=0.5;entryY=0;entryDx=0;entryDy=0;" parent="WIyWlLk6GJQsqaUBKTNV-1" target="E8BxfSAv8RuTMesUM-kW-60" edge="1">
          <mxGeometry width="50" height="50" relative="1" as="geometry">
            <mxPoint x="242" y="210" as="sourcePoint" />
            <mxPoint x="612" y="210" as="targetPoint" />
            <Array as="points">
              <mxPoint x="332" y="210" />
              <mxPoint x="490" y="210" />
            </Array>
          </mxGeometry>
        </mxCell>
        <mxCell id="E8BxfSAv8RuTMesUM-kW-47" value="Hlavní linie&lt;br&gt;(TP)" style="text;html=1;strokeColor=#005700;fillColor=#008a00;align=center;verticalAlign=middle;whiteSpace=wrap;rounded=0;fontColor=#ffffff;" parent="WIyWlLk6GJQsqaUBKTNV-1" vertex="1">
          <mxGeometry x="1020" y="170" width="80" height="30" as="geometry" />
        </mxCell>
        <mxCell id="E8BxfSAv8RuTMesUM-kW-49" value="" style="endArrow=classic;html=1;rounded=0;fillColor=#a20025;strokeColor=#6F0000;" parent="WIyWlLk6GJQsqaUBKTNV-1" edge="1">
          <mxGeometry width="50" height="50" relative="1" as="geometry">
            <mxPoint x="482" y="79.66" as="sourcePoint" />
            <mxPoint x="612" y="80" as="targetPoint" />
            <Array as="points" />
          </mxGeometry>
        </mxCell>
        <mxCell id="E8BxfSAv8RuTMesUM-kW-50" value="Páteřní linie&lt;br&gt;Ethernet (KNX IP)" style="text;html=1;align=center;verticalAlign=middle;resizable=0;points=[];autosize=1;strokeColor=#6F0000;fillColor=#a20025;fontColor=#ffffff;" parent="WIyWlLk6GJQsqaUBKTNV-1" vertex="1">
          <mxGeometry x="515" y="30" width="120" height="40" as="geometry" />
        </mxCell>
        <mxCell id="E8BxfSAv8RuTMesUM-kW-54" value="" style="endArrow=classic;html=1;rounded=0;entryX=1;entryY=0.5;entryDx=0;entryDy=0;fillColor=#008a00;strokeColor=#005700;" parent="WIyWlLk6GJQsqaUBKTNV-1" target="E8BxfSAv8RuTMesUM-kW-31" edge="1">
          <mxGeometry width="50" height="50" relative="1" as="geometry">
            <mxPoint x="412" y="210" as="sourcePoint" />
            <mxPoint x="392" y="110" as="targetPoint" />
            <Array as="points">
              <mxPoint x="412" y="285" />
            </Array>
          </mxGeometry>
        </mxCell>
        <mxCell id="E8BxfSAv8RuTMesUM-kW-60" value="DALI brána&lt;br&gt;5.0.2&lt;br&gt;MTN6725-0003" style="rounded=1;whiteSpace=wrap;html=1;" parent="WIyWlLk6GJQsqaUBKTNV-1" vertex="1">
          <mxGeometry x="430" y="260" width="120" height="60" as="geometry" />
        </mxCell>
        <mxCell id="E8BxfSAv8RuTMesUM-kW-62" value="Spínací akční člen&lt;br&gt;5.0.3&lt;br&gt;MTN649204" style="rounded=1;whiteSpace=wrap;html=1;" parent="WIyWlLk6GJQsqaUBKTNV-1" vertex="1">
          <mxGeometry x="530" y="340" width="120" height="60" as="geometry" />
        </mxCell>
        <mxCell id="E8BxfSAv8RuTMesUM-kW-63" value="Akční člen žaluzií&lt;br&gt;5.0.4&lt;br&gt;MTN649804" style="rounded=1;whiteSpace=wrap;html=1;" parent="WIyWlLk6GJQsqaUBKTNV-1" vertex="1">
          <mxGeometry x="620" y="260" width="120" height="60" as="geometry" />
        </mxCell>
        <mxCell id="E8BxfSAv8RuTMesUM-kW-68" value="Kontrolní jednotka&lt;br&gt;5.0.5&lt;br&gt;MTN646991" style="rounded=1;whiteSpace=wrap;html=1;" parent="WIyWlLk6GJQsqaUBKTNV-1" vertex="1">
          <mxGeometry x="720" y="340" width="140" height="60" as="geometry" />
        </mxCell>
        <mxCell id="E8BxfSAv8RuTMesUM-kW-73" value="KNX Fan coil akční člen&lt;br&gt;5.0.6&lt;br&gt;MTN645094" style="rounded=1;whiteSpace=wrap;html=1;" parent="WIyWlLk6GJQsqaUBKTNV-1" vertex="1">
          <mxGeometry x="827" y="260" width="140" height="60" as="geometry" />
        </mxCell>
        <mxCell id="E8BxfSAv8RuTMesUM-kW-74" value="KNX rozhraní USB&lt;br&gt;5.0.100&lt;br&gt;MTN6502-0101" style="rounded=1;whiteSpace=wrap;html=1;" parent="WIyWlLk6GJQsqaUBKTNV-1" vertex="1">
          <mxGeometry x="960" y="340" width="120" height="60" as="geometry" />
        </mxCell>
        <mxCell id="E8BxfSAv8RuTMesUM-kW-77" value="Termostat&lt;br&gt;5.1.2&lt;br&gt;MTN6212-0325" style="rounded=1;whiteSpace=wrap;html=1;" parent="WIyWlLk6GJQsqaUBKTNV-1" vertex="1">
          <mxGeometry x="200" y="360" width="120" height="60" as="geometry" />
        </mxCell>
        <mxCell id="E8BxfSAv8RuTMesUM-kW-79" value="&lt;font color=&quot;#ffffff&quot;&gt;230 V&lt;/font&gt;" style="text;html=1;align=center;verticalAlign=middle;resizable=0;points=[];autosize=1;strokeColor=#C73500;fillColor=#fa6800;fontColor=#000000;" parent="WIyWlLk6GJQsqaUBKTNV-1" vertex="1">
          <mxGeometry x="1050" y="230" width="50" height="30" as="geometry" />
        </mxCell>
        <mxCell id="E8BxfSAv8RuTMesUM-kW-83" style="edgeStyle=orthogonalEdgeStyle;rounded=0;orthogonalLoop=1;jettySize=auto;html=1;entryX=0.301;entryY=-0.017;entryDx=0;entryDy=0;entryPerimeter=0;fillColor=#008a00;strokeColor=#005700;" parent="WIyWlLk6GJQsqaUBKTNV-1" source="E8BxfSAv8RuTMesUM-kW-17" target="E8BxfSAv8RuTMesUM-kW-63" edge="1">
          <mxGeometry relative="1" as="geometry">
            <Array as="points">
              <mxPoint x="330" y="210" />
              <mxPoint x="656" y="210" />
            </Array>
          </mxGeometry>
        </mxCell>
        <mxCell id="E8BxfSAv8RuTMesUM-kW-84" style="edgeStyle=orthogonalEdgeStyle;rounded=0;orthogonalLoop=1;jettySize=auto;html=1;entryX=0.25;entryY=0;entryDx=0;entryDy=0;fillColor=#008a00;strokeColor=#005700;" parent="WIyWlLk6GJQsqaUBKTNV-1" source="E8BxfSAv8RuTMesUM-kW-17" target="E8BxfSAv8RuTMesUM-kW-73" edge="1">
          <mxGeometry relative="1" as="geometry">
            <Array as="points">
              <mxPoint x="330" y="210" />
              <mxPoint x="862" y="210" />
            </Array>
          </mxGeometry>
        </mxCell>
        <mxCell id="E8BxfSAv8RuTMesUM-kW-93" value="" style="endArrow=none;html=1;rounded=0;entryX=0.5;entryY=1;entryDx=0;entryDy=0;exitX=0.75;exitY=1;exitDx=0;exitDy=0;fillColor=#008a00;strokeColor=#005700;" parent="WIyWlLk6GJQsqaUBKTNV-1" source="E8BxfSAv8RuTMesUM-kW-31" target="E8BxfSAv8RuTMesUM-kW-42" edge="1">
          <mxGeometry width="50" height="50" relative="1" as="geometry">
            <mxPoint x="150" y="380" as="sourcePoint" />
            <mxPoint x="200" y="330" as="targetPoint" />
            <Array as="points">
              <mxPoint x="360" y="340" />
              <mxPoint x="192" y="340" />
            </Array>
          </mxGeometry>
        </mxCell>
        <mxCell id="E8BxfSAv8RuTMesUM-kW-94" value="4g tlačítkový panel&lt;br&gt;5.1.3&lt;br&gt;MTN617425" style="rounded=1;whiteSpace=wrap;html=1;" parent="WIyWlLk6GJQsqaUBKTNV-1" vertex="1">
          <mxGeometry x="380" y="400" width="120" height="60" as="geometry" />
        </mxCell>
        <mxCell id="E8BxfSAv8RuTMesUM-kW-95" value="4g tlačítkový panel&lt;br&gt;5.1.5&lt;br&gt;MTN617425" style="rounded=1;whiteSpace=wrap;html=1;" parent="WIyWlLk6GJQsqaUBKTNV-1" vertex="1">
          <mxGeometry x="380" y="480" width="120" height="60" as="geometry" />
        </mxCell>
        <mxCell id="E8BxfSAv8RuTMesUM-kW-96" value="1g tlačítkový panel&lt;br&gt;5.1.4&lt;br&gt;MTN628025" style="rounded=1;whiteSpace=wrap;html=1;" parent="WIyWlLk6GJQsqaUBKTNV-1" vertex="1">
          <mxGeometry x="200" y="440" width="120" height="60" as="geometry" />
        </mxCell>
        <mxCell id="E8BxfSAv8RuTMesUM-kW-101" value="Argus 180°&lt;br&gt;5.1.6&lt;br&gt;MTN631625" style="rounded=1;whiteSpace=wrap;html=1;" parent="WIyWlLk6GJQsqaUBKTNV-1" vertex="1">
          <mxGeometry x="200" y="525" width="120" height="60" as="geometry" />
        </mxCell>
        <mxCell id="E8BxfSAv8RuTMesUM-kW-102" style="edgeStyle=orthogonalEdgeStyle;rounded=0;orthogonalLoop=1;jettySize=auto;html=1;exitX=0.75;exitY=1;exitDx=0;exitDy=0;entryX=1;entryY=0.59;entryDx=0;entryDy=0;entryPerimeter=0;fillColor=#008a00;strokeColor=#005700;" parent="WIyWlLk6GJQsqaUBKTNV-1" source="E8BxfSAv8RuTMesUM-kW-31" target="E8BxfSAv8RuTMesUM-kW-101" edge="1">
          <mxGeometry relative="1" as="geometry" />
        </mxCell>
        <mxCell id="E8BxfSAv8RuTMesUM-kW-103" value="KNX CO&lt;span style=&quot;font-size: 10px;&quot;&gt;&lt;sub&gt;2&lt;/sub&gt;&lt;/span&gt;, humidity and temperature sensor&lt;br&gt;5.1.8&lt;br&gt;MTN6005-0001" style="rounded=1;whiteSpace=wrap;html=1;" parent="WIyWlLk6GJQsqaUBKTNV-1" vertex="1">
          <mxGeometry x="380" y="555" width="220" height="60" as="geometry" />
        </mxCell>
        <mxCell id="E8BxfSAv8RuTMesUM-kW-106" value="Vedlejší linie&lt;br&gt;(TP)" style="text;html=1;align=center;verticalAlign=middle;resizable=0;points=[];autosize=1;strokeColor=#005700;fillColor=#008a00;fontColor=#ffffff;" parent="WIyWlLk6GJQsqaUBKTNV-1" vertex="1">
          <mxGeometry x="368" y="643" width="90" height="40" as="geometry" />
        </mxCell>
      </root>
    </mxGraphModel>
  </diagram>
</mxfile>
